<?xml version="1.0" standalone="no"?>
<!DOCTYPE svg PUBLIC "-//W3C//DTD SVG 20010904//EN"
 "http://www.w3.org/TR/2001/REC-SVG-20010904/DTD/svg10.dtd">
<svg version="1.0" xmlns="http://www.w3.org/2000/svg"
 width="2500.000000pt" height="2500.000000pt" viewBox="0 0 2500.000000 2500.000000"
 preserveAspectRatio="xMidYMid meet">

<g transform="translate(0.000000,2500.000000) scale(0.100000,-0.100000)"
fill="#000000" stroke="none">
<path d="M4660 12500 l0 -6100 2878 3 c2719 2 2883 3 2982 21 509 87 922 294
1279 640 361 352 579 769 674 1291 21 118 21 140 25 1305 2 821 0 1219 -8
1295 -40 397 -200 785 -448 1088 -83 100 -261 271 -362 346 -164 121 -383 236
-557 292 l-73 23 0 121 0 121 61 59 c248 243 423 575 491 930 l23 120 0 1250
c0 1394 3 1326 -71 1614 -228 892 -996 1558 -1920 1666 -112 13 -453 15 -2551
15 l-2423 0 0 -6100z m4445 4350 c366 -41 656 -291 757 -655 22 -80 22 -84 26
-1015 2 -635 0 -965 -8 -1030 -42 -362 -288 -648 -646 -752 l-79 -23 -1377 -3
-1378 -3 0 1739 c0 956 3 1742 7 1745 11 11 2597 8 2698 -3z m996 -5247 c318
-90 546 -319 631 -633 l23 -85 0 -1000 0 -1000 -23 -83 c-98 -360 -388 -611
-753 -652 -64 -7 -645 -10 -1834 -8 l-1740 3 -3 1743 -2 1742 1812 -2 1813 -3
76 -22z"/>
<path d="M16850 16855 l0 -1745 -1740 0 -1740 0 0 -4355 0 -4355 870 0 870 0
0 3485 0 3485 875 0 875 0 0 -3485 0 -3485 1740 0 1740 0 0 870 0 870 -870 0
-870 0 0 2615 0 2615 870 0 870 0 0 870 0 870 -870 0 -870 0 0 1745 0 1745
-875 0 -875 0 0 -1745z"/>
</g>
</svg>
